<?xml version="1.0" encoding="utf-8"?><svg xmlns="http://www.w3.org/2000/svg" xmlns:xlink="http://www.w3.org/1999/xlink"><symbol viewBox="0 0 24 24" id="burger" xmlns="http://www.w3.org/2000/svg"><path fill-rule="evenodd" clip-rule="evenodd" d="M2 9.75H22V8.25H2V9.75ZM2 15.75H22V14.25H2V15.75Z"/></symbol><symbol viewBox="0 0 24 24" id="close" xmlns="http://www.w3.org/2000/svg"><path fill-rule="evenodd" clip-rule="evenodd" d="M13.0607 12.0001L19.6014 5.45934L18.5408 4.39868L12 10.9395L5.45928 4.39876L4.39862 5.45942L10.9393 12.0001L4.39864 18.5408L5.4593 19.6015L12 13.0608L18.5408 19.6016L19.6014 18.5409L13.0607 12.0001Z"/></symbol><symbol viewBox="0 0 32 32" id="like" xmlns="http://www.w3.org/2000/svg"><path d="M21.9205 11.0609C21.5784 10.7246 21.1722 10.4578 20.7252 10.2757C20.2782 10.0937 19.799 10 19.3151 10C18.8312 10 18.3521 10.0937 17.905 10.2757C17.458 10.4578 17.0518 10.7246 16.7098 11.0609L15.9998 11.7586L15.2899 11.0609C14.5989 10.3818 13.6617 10.0004 12.6845 10.0004C11.7073 10.0004 10.7702 10.3818 10.0792 11.0609C9.38819 11.7399 9 12.6609 9 13.6212C9 14.5816 9.38819 15.5026 10.0792 16.1816L10.7891 16.8793L15.9998 22L21.2105 16.8793L21.9205 16.1816C22.2627 15.8454 22.5342 15.4463 22.7194 15.007C22.9047 14.5677 23 14.0968 23 13.6212C23 13.1457 22.9047 12.6748 22.7194 12.2355C22.5342 11.7962 22.2627 11.3971 21.9205 11.0609V11.0609Z" stroke-width="1.5"/></symbol><symbol viewBox="0 0 91 32" id="logo" xmlns="http://www.w3.org/2000/svg"><path fill-rule="evenodd" clip-rule="evenodd" d="M75.3369 9H78.1435C82.2469 9 85.2635 11.9989 85.2635 15.9996C85.2635 20.0003 82.2421 22.9976 78.1435 22.9976H75.3369C71.2286 22.9976 68.2023 19.9971 68.2023 15.9996C68.2023 12.0022 71.2286 9 75.3369 9ZM75.3369 20.8658H78.1435C80.9355 20.8658 83.0068 18.7842 83.0068 15.9948C83.0068 13.2053 80.9307 11.1238 78.1435 11.1238H75.3369C72.54 11.1238 70.4557 13.2232 70.4557 15.9948C70.4557 18.7664 72.5448 20.8658 75.3369 20.8658ZM19.0349 17.7664C18.4297 19.6807 16.8286 20.8432 14.7623 20.8432H11.9524C9.24497 20.8432 7.25834 18.8185 7.25834 16.0047C7.25834 13.1909 9.24497 11.1564 11.9524 11.1564H14.7623C16.7636 11.1564 18.3418 12.2411 18.9926 14.0401H21.2363C20.5253 11.0022 17.9627 9.01483 14.7623 9.01483H11.9524C7.95147 9.01483 5 11.9699 5 16.0047C5 20.0395 7.95147 22.9865 11.9524 22.9865H14.7623C18.0164 22.9865 20.5823 20.9439 21.2835 17.7696L19.0349 17.7664ZM25.8431 20.6555V16.8789H33.7831V14.8493H25.8431V11.3243H34.2842V9.25415H23.6222V22.7452H34.4957V20.6555H25.8431ZM37.1705 9.25415H44.7509C48.7274 9.25415 51.6041 12.0826 51.6041 15.9956C51.6041 19.9087 48.7225 22.7452 44.7509 22.7452H37.1705V9.25415ZM39.3914 20.6799H44.6842C47.416 20.6799 49.3359 18.7218 49.3359 15.9956C49.3359 13.2695 47.416 11.3211 44.6842 11.3211H39.3914V20.6799ZM63.5906 17.4407C64.4026 17.1576 65.1049 16.6271 65.5983 15.924C66.0917 15.221 66.3512 14.381 66.3403 13.5228C66.3403 11.0353 64.4057 9.25415 61.8008 9.25415H53.7242V22.7452H55.9451V17.7524H61.3143L64.2186 22.7452H66.7113L63.5906 17.4407ZM61.6707 15.6822H55.9451V11.3243H61.6707C63.135 11.3243 64.082 12.2514 64.082 13.5033C64.082 14.7551 63.1415 15.6822 61.6707 15.6822Z"/></symbol><symbol viewBox="0 0 16 16" id="next" xmlns="http://www.w3.org/2000/svg"><rect x="0.75" y="0.75" width="14.5" height="14.5" rx="7.25" stroke-width="1.5"/><path d="M7.24475 11L10.2448 8L7.24475 5" stroke-width="1.5" stroke-linecap="round" stroke-linejoin="round"/></symbol><symbol viewBox="0 0 32 32" id="person" xmlns="http://www.w3.org/2000/svg"><path fill-rule="evenodd" clip-rule="evenodd" d="M13.2502 13.4007C13.2502 11.9254 14.4695 10.7084 15.9998 10.7084C17.5301 10.7084 18.7494 11.9254 18.7494 13.4007C18.7494 14.876 17.5301 16.093 15.9998 16.093C14.4695 16.093 13.2502 14.876 13.2502 13.4007ZM15.9998 9.20837C13.6646 9.20837 11.7502 11.0737 11.7502 13.4007C11.7502 15.7277 13.6646 17.593 15.9998 17.593C18.3351 17.593 20.2494 15.7277 20.2494 13.4007C20.2494 11.0737 18.3351 9.20837 15.9998 9.20837ZM12.375 22.6657C12.375 21.1787 13.5804 19.9734 15.0673 19.9734H16.9317C18.4186 19.9734 19.624 21.1787 19.624 22.6657H21.124C21.124 20.3503 19.247 18.4734 16.9317 18.4734H15.0673C12.752 18.4734 10.875 20.3503 10.875 22.6657H12.375Z"/></symbol><symbol viewBox="0 0 32 32" id="phone" xmlns="http://www.w3.org/2000/svg"><path d="M12.6637 10H10.1579C10.1579 10 9.80262 12.7433 10.1579 14.4408C10.5993 16.5495 11.1016 17.8516 12.625 19.375C14.1484 20.8984 15.4505 21.4007 17.5592 21.8421C19.2567 22.1974 22 21.8421 22 21.8421V19.3363C22 18.4754 21.4491 17.7111 20.6325 17.4389L19.5094 17.0645C19.2293 16.9712 18.9209 17.069 18.7459 17.3069C18.1043 18.1787 16.8226 18.2379 16.1034 17.4288L14.6653 15.8109C14.0139 15.0782 14.0561 13.9623 14.7609 13.2808C14.9633 13.0851 15.0355 12.7906 14.9464 12.5234L14.5611 11.3675C14.2889 10.5509 13.5246 10 12.6637 10Z" stroke-width="1.5"/></symbol></svg>