<?xml version="1.0" encoding="utf-8"?><svg viewBox="0 0 91 32" xmlns="http://www.w3.org/2000/svg" xmlns:xlink="http://www.w3.org/1999/xlink"><style>:root>svg{display:none}:root>svg:target{display:block}</style><svg fill="none" viewBox="0 0 24 24" id="burger" xmlns="http://www.w3.org/2000/svg"><path fill-rule="evenodd" clip-rule="evenodd" d="M2 9.75h20v-1.5H2v1.5Zm0 6h20v-1.5H2v1.5Z" fill="#21242E"/></svg><svg fill="none" viewBox="0 0 24 24" id="close" xmlns="http://www.w3.org/2000/svg"><path fill-rule="evenodd" clip-rule="evenodd" d="m13.06 12 6.541-6.54-1.06-1.061L12 10.939 5.46 4.4l-1.061 1.06L10.939 12 4.4 18.54l1.06 1.062L12 13.06l6.54 6.54 1.061-1.06-6.54-6.54Z" fill="#21242E"/></svg><svg fill="none" viewBox="0 0 32 32" id="like" xmlns="http://www.w3.org/2000/svg"><path d="M21.92 11.06a3.691 3.691 0 0 0-1.195-.784 3.74 3.74 0 0 0-2.82 0 3.69 3.69 0 0 0-1.195.785l-.71.698-.71-.698A3.718 3.718 0 0 0 12.685 10c-.978 0-1.915.38-2.606 1.06A3.59 3.59 0 0 0 9 13.62c0 .96.388 1.882 1.08 2.56l.71.698L16 22l5.21-5.12.71-.698c.343-.337.614-.736.8-1.175a3.565 3.565 0 0 0 0-2.771 3.617 3.617 0 0 0-.8-1.175Z" stroke="#D0BC7A" stroke-width="1.5"/></svg><svg fill="none" viewBox="0 0 91 32" id="logo" xmlns="http://www.w3.org/2000/svg"><path fill-rule="evenodd" clip-rule="evenodd" d="M75.337 9h2.806c4.104 0 7.12 2.999 7.12 7 0 4-3.02 6.998-7.12 6.998h-2.806c-4.108 0-7.135-3-7.135-6.998s3.027-7 7.135-7Zm0 11.866h2.806c2.793 0 4.864-2.082 4.864-4.871 0-2.79-2.076-4.871-4.864-4.871h-2.806c-2.797 0-4.881 2.1-4.881 4.87 0 2.772 2.089 4.872 4.88 4.872Zm-56.302-3.1c-.605 1.915-2.206 3.077-4.273 3.077h-2.81c-2.707 0-4.694-2.024-4.694-4.838s1.987-4.849 4.694-4.849h2.81c2.002 0 3.58 1.085 4.23 2.884h2.244c-.71-3.038-3.273-5.025-6.474-5.025h-2.81c-4 0-6.952 2.955-6.952 6.99s2.951 6.982 6.952 6.982h2.81c3.254 0 5.82-2.043 6.521-5.217l-2.248-.004Zm6.808 2.89v-3.777h7.94v-2.03h-7.94v-3.525h8.441v-2.07H23.622v13.491h10.874v-2.09h-8.653ZM37.17 9.254h7.58c3.977 0 6.854 2.829 6.854 6.742s-2.882 6.75-6.853 6.75h-7.58V9.253Zm2.221 11.426h5.293c2.732 0 4.652-1.958 4.652-4.684s-1.92-4.675-4.652-4.675h-5.293v9.359Zm24.2-3.24a4.09 4.09 0 0 0 2.75-3.918c0-2.487-1.935-4.268-4.54-4.268h-8.077v13.491h2.221v-4.993h5.37l2.904 4.993h2.492l-3.12-5.304Zm-1.92-1.758h-5.726v-4.358h5.726c1.464 0 2.411.927 2.411 2.18 0 1.251-.94 2.178-2.411 2.178Z" fill="#D0BC7A"/></svg><svg fill="none" viewBox="0 0 16 16" id="next" xmlns="http://www.w3.org/2000/svg"><rect x=".75" y=".75" width="14.5" height="14.5" rx="7.25" stroke="#21242E" stroke-width="1.5"/><path d="m7.245 11 3-3-3-3" stroke="#21242E" stroke-width="1.5" stroke-linecap="round" stroke-linejoin="round"/></svg><svg fill="none" viewBox="0 0 32 32" id="person" xmlns="http://www.w3.org/2000/svg"><path fill-rule="evenodd" clip-rule="evenodd" d="M13.25 13.4c0-1.475 1.22-2.692 2.75-2.692s2.75 1.217 2.75 2.693c0 1.475-1.22 2.692-2.75 2.692s-2.75-1.217-2.75-2.692ZM16 9.209c-2.335 0-4.25 1.866-4.25 4.193 0 2.327 1.915 4.192 4.25 4.192s4.25-1.865 4.25-4.192S18.334 9.208 16 9.208Zm-3.625 13.458a2.692 2.692 0 0 1 2.692-2.693h1.865a2.692 2.692 0 0 1 2.692 2.693h1.5a4.192 4.192 0 0 0-4.192-4.193h-1.865a4.192 4.192 0 0 0-4.192 4.193h1.5Z" fill="#D0BC7A"/></svg><svg fill="none" viewBox="0 0 32 32" id="phone" xmlns="http://www.w3.org/2000/svg"><path d="M12.664 10h-2.506s-.355 2.743 0 4.44c.441 2.11.944 3.412 2.467 4.935 1.523 1.523 2.825 2.026 4.934 2.467 1.698.355 4.441 0 4.441 0v-2.506a2 2 0 0 0-1.367-1.897l-1.124-.375a.68.68 0 0 0-.763.243 1.702 1.702 0 0 1-2.643.122l-1.438-1.618a1.829 1.829 0 0 1 .096-2.53.732.732 0 0 0 .185-.758l-.385-1.155A2 2 0 0 0 12.664 10Z" stroke="#D0BC7A" stroke-width="1.5"/></svg></svg>